<svg xmlns="http://www.w3.org/2000/svg" viewBox="0 0 30 30"><title>R2_Button</title><path d="M15.17,5a13,13,0,0,1,13,13v3a2,2,0,0,1-2,2h-22a2,2,0,0,1-2-2V18a13,13,0,0,1,13-13m0-2h0a15,15,0,0,0-15,15v3a4,4,0,0,0,4,4h22a4,4,0,0,0,4-4V18a15,15,0,0,0-15-15Z" fill="#adadad"/><path d="M15.17,13.5a3.5,3.5,0,0,0-3.5-3.5h-4V20h2V17h2l1.1,3h2.12l-1.3-3.57A3.5,3.5,0,0,0,15.17,13.5ZM9.67,12h2a1.5,1.5,0,1,1,0,3h-2Z" fill="#adadad"/><path d="M18.67,17a1,1,0,0,1,1-1,3,3,0,0,0,0-6h-3v2h3a1,1,0,0,1,0,2,3,3,0,0,0-3,3v3h6V18h-4Z" fill="#adadad"/></svg>